# xmcd CD database file
#
# Track frame offsets:
#	150
#	16488
#	34997
#	54356
#	73542
#	93604
#	113798
#	132983
#	151549
#	168772
#
# Disc length: 2567 seconds
#
# Revision: 0
# Processed by: cddbd v1.5.1PL0 Copyright (c) Steve Scherf et al.
# Submitted via: CDex 1.51
#
DISCID=780a050a
DTITLE=Playtime - Red Arrow Highway
DYEAR=2002
DGENRE=Jazz
TTITLE0=Playtime - Red Arrow Highway - 01 - The New Boss
TTITLE1=Playtime - Red Arrow Highway - 02 - Paris Nights
TTITLE2=Playtime - Red Arrow Highway - 03 - Ways Of The Heart
TTITLE3=Playtime - Red Arrow Highway - 04 - The Promise
TTITLE4=Playtime - Red Arrow Highway - 05 - Colorful World
TTITLE5=Playtime - Red Arrow Highway - 06 - Can We Still Be Friends
TTITLE6=Playtime - Red Arrow Highway - 07 - Red Arrow Highway
TTITLE7=Playtime - Red Arrow Highway - 08 - Lost In Nice
TTITLE8=Playtime - Red Arrow Highway - 09 - Cityscape
TTITLE9=Playtime - Red Arrow Highway - 10 - Bedtime Stories
EXTD=YEAR: 2002
EXTT0=
EXTT1=
EXTT2=
EXTT3=
EXTT4=
EXTT5=
EXTT6=
EXTT7=
EXTT8=
EXTT9=
PLAYORDER=
